<svg id="body" xmlns="http://www.w3.org/2000/svg" viewBox="0 0 874.62 721.97"><defs><style>.cls-1{fill:#333;}</style></defs><title>дорослим</title><g id="Layer_3" data-name="Layer 3"><path class="cls-1" d="M682.81,158.11c-48.3,0-96,43.73-91.26,118.82,4.14,65.49,44.86,118.82,93.16,118.82s94.2-53.26,97-118.82C785.47,186.62,728,158.11,682.81,158.11Zm79.13,118.82c-2.19,52-38.57,94.17-76.85,94.17s-70.54-42.27-73.83-94.17c-3.77-59.52,34-94.17,72.32-94.17C719.37,182.76,764.94,205.36,761.93,276.93Z" transform="translate(-62.69 -158.11)"/><path class="cls-1" d="M516,880.07c.22-17.87,1.22-63.64,5.64-118.82,5.7-71.29,16.63-90.79,16.63-90.79l11.9,209.61H825.69l9.61-207.7a451,451,0,0,1,18.54,93.16c3.41,40.2,3.5,94.32,3.39,114.54h75.53c1.69-28.44,6.93-124.7,3.31-167.79-4.28-50.87-44.2-217.68-44.2-217.68s-27.09-27.56-58-44.19-64.16-22.82-64.16-22.82-9.5,51.81-32.32,100.77-50.86,74.14-50.86,74.14S652.31,564,632.35,520.75s-26.62-95.54-26.62-95.54-44.68,17.12-68.44,28.29c-30.66,14.26-52.76,38.25-52.76,38.25s-38.26,122.63-44.91,213.41c-5.48,74.8-.16,150.55,1.89,174.91H516Z" transform="translate(-62.69 -158.11)"/><path class="cls-1" d="M753.08,395.75l-52.76,57,42.78,76,29-97.91ZM739.77,479.4l-12.83-22.81,2.38-4.28,20.44-27.1,7.61,15.69Z" transform="translate(-62.69 -158.11)"/><path class="cls-1" d="M601.21,430.92l29,97.91,42.78-76-52.76-57Zm14.73,10,7.61-15.69L644,452.31l2.38,4.28L633.52,479.4Z" transform="translate(-62.69 -158.11)"/><rect class="cls-1" x="615.77" y="347.91" width="12.36" height="109.79"/><polygon class="cls-1" points="664.25 328.43 637.63 294.68 623.37 358.67 623.37 373.16 664.25 328.43"/><polygon class="cls-1" points="580.11 328.43 610.28 294.68 619.26 356.16 615.77 368.71 580.11 328.43"/><path class="cls-1" d="M170.75,468.76l20-7.13s10.21,58.46,53.41,58.46,54.25-58.46,54.25-58.46l21.39,7.13s-13.55,77-74.5,77-74.5-74.86-74.5-74.86" transform="translate(-62.69 -158.11)"/><path class="cls-1" d="M96.05,880.07H394.46l-8.28-38.2S426.1,725.06,426.34,683c2.5-54.54-19.06-134.22-22.1-142s-20-61.84-50.5-62.15c-17.11-.17-19.16,20.74-20.91,25.55s-20.44,74.38-87.57,74.38-82.1-57.6-86.68-69.27-3-27.8-15.74-29.35c-15.21-5.47-29.23,10.1-36.12,19.48s-44.32,80-44,185.6c4.69,66.18,41.88,155.06,41.88,155.06Zm264.7-252c2.5-22.81-7.13-58.82-7.13-58.82l9.62-33.51s33.86,67,28.87,146.51-22.46,103-22.46,103L339.72,665.53S358.25,650.92,360.75,628.1ZM97.11,682.29C92.12,602.79,126,535.78,126,535.78l9.62,33.51s-9.62,36-7.13,58.82,21,37.43,21,37.43L119.56,785.31S102.1,761.78,97.11,682.29Z" transform="translate(-62.69 -158.11)"/><path class="cls-1" d="M358.24,416.6A164.73,164.73,0,0,0,394,412.91s-30.2-6.88-57.11-43.37l-.52-.92c-2-8.68-3.31-16.17-4.18-22.48.11-1.58.2-3.16.23-4.76,2.38-115-56.43-132.13-87.93-132.13-31.16,0-90.42,24.66-87.1,122.72a217.36,217.36,0,0,1-5.57,36.65l-.52.92c-26.91,36.5-57.11,43.37-57.11,43.37A164.62,164.62,0,0,0,130,416.6c-14.22,18.66-27.94,25.55-27.94,25.55s37.81-.13,66.3-17.13a107.8,107.8,0,0,0,20.07-15.73c17.8,20.79,39.78,33.81,56.09,33.81,16.53,0,39.57-11.65,57.93-31.3A105.07,105.07,0,0,0,319.88,425c28.49,17,66.3,17.13,66.3,17.13S372.46,435.26,358.24,416.6Zm-62-81.87c-15.13,54.69-41.41,72.72-52.11,72.72-21.39,0-37.06-20.49-52-72.72,87-26.38,98-64,98-64S305.5,301.22,296.23,334.73Z" transform="translate(-62.69 -158.11)"/></g></svg>