<?xml version="1.0" encoding="utf-8"?>
<!-- Generator: Adobe Illustrator 21.0.0, SVG Export Plug-In . SVG Version: 6.00 Build 0)  -->
<svg version="1.1" id="body" xmlns="http://www.w3.org/2000/svg" xmlns:xlink="http://www.w3.org/1999/xlink" x="0px" y="0px"
	 viewBox="0 0 1000 1000" style="enable-background:new 0 0 1000 1000;" xml:space="preserve">
<style type="text/css">
	.st0{fill:#333333;}
	.st1{display:none;}
	.st2{display:inline;}
</style>
<g>
	<path class="st0" d="M442.3,519.2c0,0,14.7,32,45.7,40.7c9.7,2.7,17.3,3.8,25.4,1.1c3.7-1.3,8.4-4.3,15.6-7.4
		c20.4-12.3,31-36,31-36s11.9,7,17.3-11.7s-8.3-16.7-8.3-16.7s1.9-29.3-14.7-52.7s-42.4-25.4-42.4-25.4s-28.1-20.3-20.1-28.7
		s11.9,0.7,12.3,2.3s-0.8,7.1,4.5,8.5c5.4,1.5,8.3-6.2,7.2-12.4s-9.1-11.4-11.5-12.3c-2.4-0.9-19.8-2.6-27.3,12.6
		c-7.5,15.2,1.3,31.8,1.3,31.8s-23.4,10.9-34.4,28.6c-11.4,18.3-10.6,43.3-11,47.6c-4.8-3.9-16.5,3.8-8.8,18.3
		S442.3,519.2,442.3,519.2z M503.4,432.9c10,0.3,41.8,8.8,40.5,50.8c-1.3,42-32.3,54.3-38.2,54.2c-5.9-0.2-39.5,5.1-47-46
		C451,439.4,493.4,432.5,503.4,432.9z"/>
	<path class="st0" d="M614.5,632.2c-6.2-8.7-49.8-62.3-71.3-56.7s-25.8,14.5-43.7,13.8s-34-12.7-44-14.9c-19-4.2-59.5,44-70.3,59.2
		s-45.9,74.8-35.3,93s20.2,13.1,31.2,10.8s37-92.3,49.5-86.9c24.8,10.8-0.8,189.6-0.8,189.6s-30.9,3.4-30.5,22.9
		c1.4,13.9,9.9,14.6,9.9,14.6s18,2.5,36.5,2.1c16.8-0.4,34.1-3,38-15.4c6.8-47.5-3.9-77.9,6.9-85c3.8-0.6,13.1-1,19.8,0.8
		c8.3,3.4,4.7,57.9,4.9,78.8c0.1,15.2,15.4,18.3,22.7,19.8s47.2,1.8,50.5,0.8s14.1-7.8,12.9-21.8S574,842.7,571.4,839
		s-13.6-183.6-3.7-188.6s24.5,26.6,24.5,26.6s17.2,47.2,21.7,53.8s34.7,16,38-8S622.9,643.8,614.5,632.2z M500.3,713
		c-8.7,0-15.8-7.1-15.8-15.8s7.1-15.8,15.8-15.8s15.8,7.1,15.8,15.8S509,713,500.3,713z M500.3,661.8c-8.7,0-15.8-7.1-15.8-15.8
		s7.1-15.8,15.8-15.8S516,637.3,516,646S509,661.8,500.3,661.8z"/>
</g>
<g class="st1">
	<g id="boy" class="st2">
		<path class="st0" d="M790.4,455.5c0,0,13.2-32.5,4.2-62.4c-5.4-18-28-41.7-28-41.7s0.7-6.5,3.6-13.2c2.9-6.8,7.7-13.4,7.7-13.4
			s-13.1,2.4-17.7,4.2c-4.6,1.8-12.6,7.9-12.6,7.9s-0.7-4.1-5-18.7c-4.2-14.6-8.1-18.1-8.1-18.1s-0.5,5.7-4,12.6s-8.4,9.6-8.4,9.6
			s-0.6-1.6-10.4-10.4c-9.7-8.7-14-10.7-14-10.7s1.4,5.7,1.9,11.5c0.5,5.7-0.6,8.2-0.6,8.2s-41.1-5.7-85.8,31.3
			c-48.7,48.5-24,103.2-24,103.2s-11.2,12-5.7,26.5c5.5,14.5,19.7,20,19.7,20s28,93.9,88.9,93.9s79.2-87.9,87.4-92.4
			c2.7-1.5,18-12.2,20.3-26.2C802.2,463,790.4,455.5,790.4,455.5z M691.1,576.7c-55.8,0-79.3-123.9-79.3-123.9s112.4-8,128.9-34.5
			c-12,29,29.5,45.5,29.5,45.5S747,576.7,691.1,576.7z"/>
		<path class="st0" d="M818.3,642.5c-28.8-29.4-65-34.7-65-34.7s4.7,39.2,6.3,48.7c-0.2,10.1,0.2,43,0.2,43l-68.7-42.4L622,699.5
			c3-36.8,0.8-36.4,1.7-48.2c1.4-17.5,5.6-43.5,5.6-43.5s-53.2,15.4-67.8,38.6c-20.8,30.9-35.5,233.4-35.5,233.4h330.2
			C856.2,879.9,844.2,668.9,818.3,642.5z M691.1,789.3c-6.3,0-11.4-5.1-11.4-11.4c0-6.3,5.1-11.4,11.4-11.4s11.4,5.1,11.4,11.4
			C702.6,784.2,697.5,789.3,691.1,789.3z M691.1,743.9c-6.3,0-11.4-5.1-11.4-11.4c0-6.3,5.1-11.4,11.4-11.4s11.4,5.1,11.4,11.4
			C702.6,738.8,697.5,743.9,691.1,743.9z"/>
	</g>
	<g id="girl" class="st2">
		<path class="st0" d="M448,642.5c-28.8-29.4-65-34.7-65-34.7s4.7,39.2,6.3,48.7c-0.2,10.1,0.2,43,0.2,43l-68.7-42.4l-69.2,42.4
			c3-36.8,0.8-36.4,1.7-48.2c1.4-17.5,5.6-43.5,5.6-43.5s-53.2,15.4-67.8,38.6c-20.8,30.9-35.5,233.4-35.5,233.4h330.2
			C485.9,879.9,473.9,668.9,448,642.5z M319.3,789.3c-6.3,0-11.4-5.1-11.4-11.4c0-6.3,5.1-11.4,11.4-11.4s11.4,5.1,11.4,11.4
			C330.7,784.2,325.6,789.3,319.3,789.3z M319.3,743.9c-6.3,0-11.4-5.1-11.4-11.4c0-6.3,5.1-11.4,11.4-11.4s11.4,5.1,11.4,11.4
			C330.7,738.8,325.6,743.9,319.3,743.9z"/>
		<path class="st0" d="M490.9,516.7c-25.2-55.4-66.9-53.4-66.9-53.4s9-42.5-21-80.7c-17.5-17.2-27.5-35.5-84.9-39.7
			c-55.4,3.2-70.7,28.4-83.8,43.8c-20.7,24.2-20.7,75.5-20.7,75.5s-65.1,10.1-69.8,81.8c0,46.7,49.5,39.7,49.5,39.7s-6-39.4,0-57.5
			c6-18.1,22.5-41.7,22.5-41.7s6.9,32.5,27.8,46.4c30.9,64.6,79.7,65,78,64.7c-1.7-0.3,39.1,4.4,77.3-66.3
			c15.9-12.6,24.7-46.3,24.7-46.3s19.5,23.5,23.7,49.2s-0.3,52.9-0.3,52.9S512.7,597.4,490.9,516.7z M319.6,575.7
			c-51.1-3-74.6-101.5-74.6-101.5s5.3,1.2,10.7,0c5.4-1.2,21.5-35.6,21.5-35.6s1.5,10.9,1.1,20.4c-0.4,9.6-2.4,15.2-2.4,15.2
			s8.2,0.4,16.9-1.1c8.6-1.5,22.3-43.8,22.3-43.8s3.4,12.8,3.6,23.5c0.1,9.5-1.1,17.1,1,16.6c4.3-1.1,14,5.2,35.4,4.5
			c21.4-0.7,42-4.5,42-4.5S370.7,578.7,319.6,575.7z"/>
	</g>
</g>
<g class="st1">
	<g id="Layer_3" class="st2">
		<g>
			<path class="st0" d="M682.8,158.1c-48.3,0-96,43.7-91.3,118.8c4.1,65.5,44.9,118.8,93.2,118.8c48.3,0,94.2-53.3,97-118.8
				C785.5,186.6,728,158.1,682.8,158.1z M761.9,276.9c-2.2,52-38.6,94.2-76.8,94.2c-38.3,0-70.5-42.3-73.8-94.2
				c-3.8-59.5,34-94.2,72.3-94.2C719.4,182.8,764.9,205.4,761.9,276.9z"/>
			<path class="st0" d="M516,880.1c0.2-17.9,1.2-63.6,5.6-118.8c5.7-71.3,16.6-90.8,16.6-90.8l11.9,209.6h275.5l9.6-207.7
				c0,0,14.3,42.8,18.5,93.2c3.4,40.2,3.5,94.3,3.4,114.5h75.5c1.7-28.4,6.9-124.7,3.3-167.8c-4.3-50.9-44.2-217.7-44.2-217.7
				s-27.1-27.6-58-44.2s-64.2-22.8-64.2-22.8s-9.5,51.8-32.3,100.8c-22.8,49-50.9,74.1-50.9,74.1s-34.2-38.5-54.2-81.7
				c-20-43.3-26.6-95.5-26.6-95.5s-44.7,17.1-68.4,28.3c-30.7,14.3-52.8,38.3-52.8,38.3s-38.3,122.6-44.9,213.4
				c-5.5,74.8-0.2,150.6,1.9,174.9L516,880.1L516,880.1z"/>
			<path class="st0" d="M753.1,395.8l-52.8,57l42.8,76l29-97.9L753.1,395.8z M739.8,479.4l-12.8-22.8l2.4-4.3l20.4-27.1l7.6,15.7
				L739.8,479.4z"/>
			<path class="st0" d="M601.2,430.9l29,97.9l42.8-76l-52.8-57L601.2,430.9z M615.9,440.9l7.6-15.7l20.4,27.1l2.4,4.3l-12.8,22.8
				L615.9,440.9z"/>
			<rect x="678.5" y="506" class="st0" width="12.4" height="109.8"/>
			<polygon class="st0" points="726.9,486.5 700.3,452.8 686.1,516.8 686.1,531.3 			"/>
			<polygon class="st0" points="642.8,486.5 673,452.8 682,514.3 678.5,526.8 			"/>
			<g>
				<path class="st0" d="M170.8,468.8l20-7.1c0,0,10.2,58.5,53.4,58.5s54.2-58.5,54.2-58.5l21.4,7.1c0,0-13.5,77-74.5,77
					s-74.5-74.9-74.5-74.9"/>
				<path class="st0" d="M96.1,880.1h298.4l-8.3-38.2c0,0,39.9-116.8,40.2-158.9c2.5-54.5-19.1-134.2-22.1-142
					c-3-7.8-20-61.8-50.5-62.1c-17.1-0.2-19.2,20.7-20.9,25.5s-20.4,74.4-87.6,74.4s-82.1-57.6-86.7-69.3
					c-4.6-11.7-3-27.8-15.7-29.4c-15.2-5.5-29.2,10.1-36.1,19.5s-44.3,80-44,185.6c4.7,66.2,41.9,155.1,41.9,155.1L96.1,880.1z
					 M360.7,628.1c2.5-22.8-7.1-58.8-7.1-58.8l9.6-33.5c0,0,33.9,67,28.9,146.5c-5,79.5-22.5,103-22.5,103l-29.9-119.8
					C339.7,665.5,358.3,650.9,360.7,628.1z M97.1,682.3c-5-79.5,28.9-146.5,28.9-146.5l9.6,33.5c0,0-9.6,36-7.1,58.8
					c2.5,22.8,21,37.4,21,37.4l-29.9,119.8C119.6,785.3,102.1,761.8,97.1,682.3z"/>
				<path class="st0" d="M358.2,416.6c19.9,0.1,35.8-3.7,35.8-3.7s-30.2-6.9-57.1-43.4c-0.2-0.3-0.3-0.6-0.5-0.9
					c-2-8.7-3.3-16.2-4.2-22.5c0.1-1.6,0.2-3.2,0.2-4.8c2.4-115-56.4-132.1-87.9-132.1c-31.2,0-90.4,24.7-87.1,122.7
					c-0.4,8-1.8,20.2-5.6,36.6c-0.2,0.3-0.3,0.6-0.5,0.9c-26.9,36.5-57.1,43.4-57.1,43.4s15.9,3.8,35.8,3.7
					c-14.2,18.7-27.9,25.5-27.9,25.5s37.8-0.1,66.3-17.1c7.6-4.5,14.3-10,20.1-15.7c17.8,20.8,39.8,33.8,56.1,33.8
					c16.5,0,39.6-11.7,57.9-31.3c5.2,4.8,11,9.4,17.4,13.2c28.5,17,66.3,17.1,66.3,17.1S372.5,435.3,358.2,416.6z M296.2,334.7
					c-15.1,54.7-41.4,72.7-52.1,72.7c-21.4,0-37.1-20.5-52-72.7c87-26.4,98-64,98-64S305.5,301.2,296.2,334.7z"/>
			</g>
		</g>
	</g>
</g>
</svg>
