<svg id="body" xmlns="http://www.w3.org/2000/svg" viewBox="0 0 712.47 579.82"><defs><style>.cls-1{fill:#333;}</style></defs><title>школярам</title><g id="boy"><path class="cls-1" d="M790.39,455.53s13.24-32.47,4.25-62.44c-5.4-18-28-41.71-28-41.71a52.7,52.7,0,0,1,3.62-13.24A78,78,0,0,1,778,324.78S764.89,327.2,760.3,329s-12.61,7.87-12.61,7.87-.75-4.12-5-18.73-8.12-18.11-8.12-18.11a38.11,38.11,0,0,1-4,12.61,23.85,23.85,0,0,1-8.37,9.62s-.62-1.62-10.37-10.37-14-10.74-14-10.74a90.32,90.32,0,0,1,1.87,11.49c.5,5.75-.59,8.21-.59,8.21s-41.12-5.71-85.83,31.25c-48.7,48.45-24,103.15-24,103.15s-11.24,12-5.75,26.47,19.73,20,19.73,20,28,93.94,88.92,93.94,79.17-87.94,87.42-92.44c2.66-1.45,18-12.24,20.26-26.22S790.39,455.53,790.39,455.53ZM691.14,576.67c-55.85,0-79.33-123.88-79.33-123.88s112.39-8,128.88-34.47c-12,29,29.47,45.46,29.47,45.46S747,576.67,691.14,576.67Z" transform="translate(-143.77 -300.06)"/><path class="cls-1" d="M818.33,642.54c-28.85-29.41-65-34.65-65-34.65s4.73,39.22,6.31,48.67c-.2,10.08.18,43,.18,43l-68.68-42.4L622,699.55c3-36.8.8-36.4,1.75-48.2,1.4-17.46,5.62-43.46,5.62-43.46s-53.2,15.36-67.81,38.59c-20.79,30.91-35.47,233.4-35.47,233.4H856.23S844.21,668.92,818.33,642.54ZM691.14,789.34a11.43,11.43,0,1,1,11.43-11.43A11.43,11.43,0,0,1,691.14,789.34Zm0-45.46a11.43,11.43,0,1,1,11.43-11.43A11.43,11.43,0,0,1,691.14,743.88Z" transform="translate(-143.77 -300.06)"/></g><g id="girl"><path class="cls-1" d="M448,642.54c-28.85-29.41-65-34.65-65-34.65s4.73,39.23,6.31,48.68c-.2,10.09.18,43,.18,43l-68.68-42.4-69.18,42.4c3-36.8.8-36.4,1.75-48.2,1.4-17.46,5.62-43.46,5.62-43.46s-53.2,15.36-67.81,38.59c-20.79,30.91-35.47,233.4-35.47,233.4H485.94S473.92,668.92,448,642.54ZM319.3,789.34a11.43,11.43,0,1,1,11.43-11.43A11.43,11.43,0,0,1,319.3,789.34Zm0-45.46a11.43,11.43,0,1,1,11.43-11.43A11.43,11.43,0,0,1,319.3,743.88Z" transform="translate(-143.77 -300.06)"/><path class="cls-1" d="M490.93,516.72C465.71,461.28,424,463.28,424,463.28s9-42.46-21-80.67c-17.48-17.23-27.47-35.47-84.92-39.71-55.45,3.25-70.66,28.39-83.79,43.77-20.66,24.2-20.71,75.53-20.71,75.53s-65.08,10.08-69.82,81.76c0,46.71,49.45,39.71,49.45,39.71s-6-39.36,0-57.47,22.5-41.69,22.5-41.69,6.87,32.47,27.79,46.39c30.91,64.63,79.7,65,78,64.75s39.09,4.37,77.3-66.31C414.63,516.72,423.5,483,423.5,483s19.48,23.48,23.73,49.2-.25,52.95-.25,52.95S512.66,597.4,490.93,516.72ZM319.55,575.67c-51.12-3-74.57-101.53-74.57-101.53a27.45,27.45,0,0,0,10.68,0c5.39-1.2,21.54-35.59,21.54-35.59A136.34,136.34,0,0,1,278.32,459c-.37,9.55-2.44,15.17-2.44,15.17A88.06,88.06,0,0,0,292.75,473c8.62-1.5,22.29-43.83,22.29-43.83s3.41,12.81,3.56,23.52c.13,9.51-1.08,17.1,1,16.58,4.33-1.11,14,5.23,35.39,4.48a334.16,334.16,0,0,0,42-4.48S370.67,578.66,319.55,575.67Z" transform="translate(-143.77 -300.06)"/></g></svg>