<?xml version="1.0" encoding="utf-8"?>
<!-- Generator: Adobe Illustrator 21.0.0, SVG Export Plug-In . SVG Version: 6.00 Build 0)  -->
<svg version="1.1" id="body" xmlns="http://www.w3.org/2000/svg" xmlns:xlink="http://www.w3.org/1999/xlink" x="0px" y="0px"
	 viewBox="0 0 1000 810" style="enable-background:new 0 0 1000 810;" xml:space="preserve">
<style type="text/css">
	.st0{fill:#BA6CAA;}
	.st1{display:none;}
	.st2{display:inline;}
	.st3{fill:#333333;}
</style>
<g>
	<path class="st0" d="M427.8,318.8c0,0,18.4,40,57.1,50.9c12.1,3.4,21.6,4.8,31.8,1.4c4.6-1.6,10.5-5.4,19.5-9.3
		c25.5-15.4,38.8-45,38.8-45s14.9,8.8,21.6-14.6c6.8-23.4-10.4-20.9-10.4-20.9s2.4-36.6-18.4-65.9c-20.8-29.3-53-31.8-53-31.8
		s-35.1-25.4-25.1-35.9s14.9,0.9,15.4,2.9s-1,8.9,5.6,10.6c6.8,1.9,10.4-7.8,9-15.5c-1.4-7.8-11.4-14.3-14.4-15.4
		c-3-1.1-24.8-3.3-34.1,15.8c-9.4,19,1.6,39.8,1.6,39.8s-29.3,13.6-43,35.8c-14.3,22.9-13.3,54.1-13.8,59.5c-6-4.9-20.6,4.8-11,22.9
		C414.7,322.2,427.8,318.8,427.8,318.8z M504.2,210.9c12.5,0.4,52.3,11,50.6,63.5s-40.4,67.9-47.8,67.8c-7.4-0.3-49.4,6.4-58.8-57.5
		C438.7,219,491.7,210.4,504.2,210.9z"/>
	<path class="st0" d="M643.1,460.1c-7.8-10.9-62.3-77.9-89.2-70.9s-32.3,18.1-54.6,17.3c-22.4-0.9-42.5-15.9-55-18.6
		c-23.8-5.3-74.4,55-87.9,74s-57.4,93.5-44.1,116.3s25.3,16.4,39,13.5c13.8-2.9,46.3-115.4,61.9-108.7c31,13.5-1,237.1-1,237.1
		s-38.6,4.3-38.1,28.6c1.8,17.4,12.4,18.3,12.4,18.3s22.5,3.1,45.6,2.6c21-0.5,42.6-3.8,47.5-19.3c8.5-59.4-4.9-97.4,8.6-106.3
		c4.8-0.8,16.4-1.3,24.8,1c10.4,4.3,5.9,72.4,6.1,98.5c0.1,19,19.3,22.9,28.4,24.8c9.1,1.9,59,2.3,63.1,1s17.6-9.8,16.1-27.3
		s-34.3-18.8-37.5-23.4c-3.3-4.6-17-229.6-4.6-235.8c12.4-6.3,30.6,33.3,30.6,33.3s21.5,59,27.1,67.3s43.4,20,47.5-10
		C694,543.4,653.6,474.6,643.1,460.1z M500.3,561.2c-10.9,0-19.8-8.9-19.8-19.8c0-10.9,8.9-19.8,19.8-19.8s19.8,8.9,19.8,19.8
		S511.2,561.2,500.3,561.2z M500.3,497.1c-10.9,0-19.8-8.9-19.8-19.8s8.9-19.8,19.8-19.8s19.6,8.9,19.6,19.8
		S511.2,497.1,500.3,497.1z"/>
</g>
<g class="st1">
	<g id="boy" class="st2">
		<path class="st3" d="M777.4,364.5c0,0,12.6-31,4-59.6c-5.2-17.2-26.7-39.8-26.7-39.8s0.7-6.2,3.4-12.6c2.8-6.5,7.4-12.8,7.4-12.8
			s-12.5,2.3-16.9,4s-12,7.5-12,7.5s-0.7-3.9-4.8-17.9c-4-13.9-7.7-17.3-7.7-17.3s-0.5,5.4-3.8,12s-8,9.2-8,9.2s-0.6-1.5-9.9-9.9
			c-9.3-8.3-13.4-10.2-13.4-10.2s1.3,5.4,1.8,11c0.5,5.4-0.6,7.8-0.6,7.8s-39.3-5.4-82,29.9c-46.5,46.3-22.9,98.6-22.9,98.6
			s-10.7,11.5-5.4,25.3s18.8,19.1,18.8,19.1s26.7,89.7,84.9,89.7s75.6-84,83.5-88.3c2.6-1.4,17.2-11.7,19.4-25
			C788.6,371.7,777.4,364.5,777.4,364.5z M682.5,480.3c-53.3,0-75.7-118.3-75.7-118.3s107.4-7.6,123.1-33
			c-11.5,27.7,28.2,43.5,28.2,43.5S735.9,480.3,682.5,480.3z"/>
		<path class="st3" d="M804,543.1C776.5,515,741.9,510,741.9,510s4.5,37.4,6,46.5c-0.2,9.6,0.2,41.1,0.2,41.1l-65.6-40.5l-66,40.5
			c2.9-35.1,0.8-34.8,1.6-46c1.3-16.7,5.3-41.5,5.3-41.5s-50.8,14.7-64.8,36.9c-19.9,29.5-33.9,222.9-33.9,222.9h315.4
			C840.2,769.9,828.8,568.4,804,543.1z M682.5,683.4c-6,0-10.9-4.9-10.9-10.9s4.9-10.9,10.9-10.9s10.9,4.9,10.9,10.9
			C693.5,678.5,688.6,683.4,682.5,683.4z M682.5,640c-6,0-10.9-4.9-10.9-10.9s4.9-10.9,10.9-10.9s10.9,4.9,10.9,10.9
			C693.5,635.1,688.6,640,682.5,640z"/>
	</g>
	<g id="girl" class="st2">
		<path class="st3" d="M450.3,543.1C422.8,515,388.2,510,388.2,510s4.5,37.4,6,46.5c-0.2,9.6,0.2,41.1,0.2,41.1l-65.6-40.5
			l-66.1,40.5c2.9-35.1,0.8-34.8,1.6-46c1.3-16.7,5.3-41.5,5.3-41.5s-50.8,14.7-64.8,36.9C185.1,576.4,171,769.8,171,769.8h315.4
			C486.5,769.9,475.1,568.4,450.3,543.1z M327.4,683.4c-6,0-10.9-4.9-10.9-10.9s4.9-10.9,10.9-10.9s10.9,4.9,10.9,10.9
			S333.4,683.4,327.4,683.4z M327.4,640c-6,0-10.9-4.9-10.9-10.9s4.9-10.9,10.9-10.9s10.9,4.9,10.9,10.9S333.4,640,327.4,640z"/>
		<path class="st3" d="M491.3,423c-24.1-52.9-63.9-51-63.9-51s8.6-40.6-20.1-77.1C390.6,278.5,381,261,326.2,257
			c-52.9,3.1-67.5,27.1-80,41.8c-19.8,23.1-19.8,72.1-19.8,72.1s-62.2,9.6-66.7,78.1c0,44.6,47.3,37.9,47.3,37.9s-5.7-37.6,0-54.9
			c5.7-17.3,21.5-39.8,21.5-39.8s6.6,31,26.6,44.3c29.5,61.7,76.1,62.1,74.5,61.8s37.3,4.2,73.8-63.3c15.2-12,23.6-44.2,23.6-44.2
			s18.6,22.4,22.6,47c4,24.5-0.3,50.5-0.3,50.5S512.1,500.1,491.3,423z M327.7,479.3c-48.8-2.9-71.3-96.9-71.3-96.9s5.1,1.1,10.2,0
			s20.5-34,20.5-34s1.4,10.4,1.1,19.5c-0.4,9.2-2.3,14.5-2.3,14.5s7.8,0.4,16.1-1.1c8.2-1.4,21.3-41.8,21.3-41.8s3.2,12.2,3.4,22.4
			c0.1,9.1-1.1,16.3,1,15.9c4.1-1.1,13.4,5,33.8,4.3s40.1-4.3,40.1-4.3S376.5,482.2,327.7,479.3z"/>
	</g>
</g>
<g class="st1">
	<g id="Layer_3" class="st2">
		<g>
			<path class="st3" d="M682.8,48.1c-48.3,0-96,43.7-91.3,118.8c4.1,65.5,44.9,118.8,93.2,118.8s94.2-53.3,97-118.8
				C785.5,76.6,728,48.1,682.8,48.1z M761.9,166.9c-2.2,52-38.6,94.2-76.8,94.2c-38.3,0-70.5-42.3-73.8-94.2
				c-3.8-59.5,34-94.2,72.3-94.2C719.4,72.8,764.9,95.4,761.9,166.9z"/>
			<path class="st3" d="M516,770.1c0.2-17.9,1.2-63.6,5.6-118.8c5.7-71.3,16.6-90.8,16.6-90.8l11.9,209.6h275.5l9.6-207.7
				c0,0,14.3,42.8,18.5,93.2c3.4,40.2,3.5,94.3,3.4,114.5h75.5c1.7-28.4,6.9-124.7,3.3-167.8c-4.3-50.9-44.2-217.7-44.2-217.7
				s-27.1-27.6-58-44.2s-64.2-22.8-64.2-22.8s-9.5,51.8-32.3,100.8s-50.9,74.1-50.9,74.1s-34.2-38.5-54.2-81.7
				c-20-43.3-26.6-95.5-26.6-95.5s-44.7,17.1-68.4,28.3c-30.7,14.3-52.8,38.3-52.8,38.3S446,504.5,439.4,595.3
				c-5.5,74.8-0.2,150.6,1.9,174.9L516,770.1L516,770.1z"/>
			<path class="st3" d="M753.1,285.8l-52.8,57l42.8,76l29-97.9L753.1,285.8z M739.8,369.4L727,346.6l2.4-4.3l20.4-27.1l7.6,15.7
				L739.8,369.4z"/>
			<path class="st3" d="M601.2,320.9l29,97.9l42.8-76l-52.8-57L601.2,320.9z M615.9,330.9l7.6-15.7l20.4,27.1l2.4,4.3l-12.8,22.8
				L615.9,330.9z"/>
			<rect x="678.5" y="396" class="st3" width="12.4" height="109.8"/>
			<polygon class="st3" points="726.9,376.5 700.3,342.8 686.1,406.8 686.1,421.3 			"/>
			<polygon class="st3" points="642.8,376.5 673,342.8 682,404.3 678.5,416.8 			"/>
			<g>
				<path class="st3" d="M170.8,358.8l20-7.1c0,0,10.2,58.5,53.4,58.5s54.2-58.5,54.2-58.5l21.4,7.1c0,0-13.5,77-74.5,77
					s-74.5-74.9-74.5-74.9"/>
				<path class="st3" d="M96.1,770.1h298.4l-8.3-38.2c0,0,39.9-116.8,40.2-158.9c2.5-54.5-19.1-134.2-22.1-142s-20-61.8-50.5-62.1
					c-17.1-0.2-19.2,20.7-20.9,25.5s-20.4,74.4-87.6,74.4s-82.1-57.6-86.7-69.3c-4.6-11.7-3-27.8-15.7-29.4
					c-15.2-5.5-29.2,10.1-36.1,19.5s-44.3,80-44,185.6c4.7,66.2,41.9,155.1,41.9,155.1L96.1,770.1z M360.7,518.1
					c2.5-22.8-7.1-58.8-7.1-58.8l9.6-33.5c0,0,33.9,67,28.9,146.5s-22.5,103-22.5,103l-29.9-119.8
					C339.7,555.5,358.3,540.9,360.7,518.1z M97.1,572.3c-5-79.5,28.9-146.5,28.9-146.5l9.6,33.5c0,0-9.6,36-7.1,58.8
					c2.5,22.8,21,37.4,21,37.4l-29.9,119.8C119.6,675.3,102.1,651.8,97.1,572.3z"/>
				<path class="st3" d="M358.2,306.6c19.9,0.1,35.8-3.7,35.8-3.7s-30.2-6.9-57.1-43.4c-0.2-0.3-0.3-0.6-0.5-0.9
					c-2-8.7-3.3-16.2-4.2-22.5c0.1-1.6,0.2-3.2,0.2-4.8c2.4-115-56.4-132.1-87.9-132.1c-31.2,0-90.4,24.7-87.1,122.7
					c-0.4,8-1.8,20.2-5.6,36.6c-0.2,0.3-0.3,0.6-0.5,0.9c-26.9,36.5-57.1,43.4-57.1,43.4s15.9,3.8,35.8,3.7
					c-14.2,18.7-27.9,25.5-27.9,25.5s37.8-0.1,66.3-17.1c7.6-4.5,14.3-10,20.1-15.7c17.8,20.8,39.8,33.8,56.1,33.8
					c16.5,0,39.6-11.7,57.9-31.3c5.2,4.8,11,9.4,17.4,13.2c28.5,17,66.3,17.1,66.3,17.1S372.5,325.3,358.2,306.6z M296.2,224.7
					c-15.1,54.7-41.4,72.7-52.1,72.7c-21.4,0-37.1-20.5-52-72.7c87-26.4,98-64,98-64S305.5,191.2,296.2,224.7z"/>
			</g>
		</g>
	</g>
</g>
</svg>
