<?xml version="1.0" encoding="utf-8"?>
<!-- Generator: Adobe Illustrator 21.0.0, SVG Export Plug-In . SVG Version: 6.00 Build 0)  -->
<svg version="1.1" id="body" xmlns="http://www.w3.org/2000/svg" xmlns:xlink="http://www.w3.org/1999/xlink" x="0px" y="0px"
	 viewBox="0 0 1000 810" style="enable-background:new 0 0 1000 810;" xml:space="preserve">
<style type="text/css">
	.st0{display:none;}
	.st1{display:inline;fill:#333333;}
	.st2{fill:#3FB5F2;}
	.st3{fill:#E28D45;}
	.st4{display:inline;}
	.st5{fill:#333333;}
</style>
<g class="st0">
	<path class="st1" d="M427.8,318.8c0,0,18.4,40,57.1,50.9c12.1,3.4,21.6,4.8,31.8,1.4c4.6-1.6,10.5-5.4,19.5-9.3
		c25.5-15.4,38.8-45,38.8-45s14.9,8.8,21.6-14.6c6.8-23.4-10.4-20.9-10.4-20.9s2.4-36.6-18.4-65.9c-20.8-29.3-53-31.8-53-31.8
		s-35.1-25.4-25.1-35.9s14.9,0.9,15.4,2.9s-1,8.9,5.6,10.6c6.8,1.9,10.4-7.8,9-15.5c-1.4-7.8-11.4-14.3-14.4-15.4
		c-3-1.1-24.8-3.3-34.1,15.8c-9.4,19,1.6,39.8,1.6,39.8s-29.3,13.6-43,35.8c-14.3,22.9-13.3,54.1-13.8,59.5c-6-4.9-20.6,4.8-11,22.9
		C414.7,322.2,427.8,318.8,427.8,318.8z M504.2,210.9c12.5,0.4,52.3,11,50.6,63.5s-40.4,67.9-47.8,67.8c-7.4-0.3-49.4,6.4-58.8-57.5
		C438.7,219,491.7,210.4,504.2,210.9z"/>
	<path class="st1" d="M643.1,460.1c-7.8-10.9-62.3-77.9-89.2-70.9s-32.3,18.1-54.6,17.3c-22.4-0.9-42.5-15.9-55-18.6
		c-23.8-5.3-74.4,55-87.9,74s-57.4,93.5-44.1,116.3s25.3,16.4,39,13.5c13.8-2.9,46.3-115.4,61.9-108.7c31,13.5-1,237.1-1,237.1
		s-38.6,4.3-38.1,28.6c1.8,17.4,12.4,18.3,12.4,18.3s22.5,3.1,45.6,2.6c21-0.5,42.6-3.8,47.5-19.3c8.5-59.4-4.9-97.4,8.6-106.3
		c4.8-0.8,16.4-1.3,24.8,1c10.4,4.3,5.9,72.4,6.1,98.5c0.1,19,19.3,22.9,28.4,24.8c9.1,1.9,59,2.3,63.1,1s17.6-9.8,16.1-27.3
		s-34.3-18.8-37.5-23.4c-3.3-4.6-17-229.6-4.6-235.8c12.4-6.3,30.6,33.3,30.6,33.3s21.5,59,27.1,67.3s43.4,20,47.5-10
		C694,543.4,653.6,474.6,643.1,460.1z M500.3,561.2c-10.9,0-19.8-8.9-19.8-19.8c0-10.9,8.9-19.8,19.8-19.8s19.8,8.9,19.8,19.8
		S511.2,561.2,500.3,561.2z M500.3,497.1c-10.9,0-19.8-8.9-19.8-19.8s8.9-19.8,19.8-19.8s19.6,8.9,19.6,19.8
		S511.2,497.1,500.3,497.1z"/>
</g>
<g>
	<g id="boy">
		<path class="st2" d="M822.3,299c0,0,14.6-36,4.6-69.2c-6-20-31-46.2-31-46.2s0.8-7.2,3.9-14.6c3.3-7.5,8.6-14.9,8.6-14.9
			s-14.5,2.7-19.6,4.6c-5.1,2-13.9,8.7-13.9,8.7s-0.8-4.5-5.6-20.8c-4.6-16.1-8.9-20.1-8.9-20.1s-0.6,6.3-4.4,13.9
			s-9.3,10.7-9.3,10.7s-0.7-1.7-11.5-11.5c-10.8-9.6-15.6-11.8-15.6-11.8s1.5,6.3,2.1,12.8c0.6,6.3-0.7,9.1-0.7,9.1
			s-45.6-6.3-95.2,34.7c-54,53.8-26.6,114.5-26.6,114.5s-12.4,13.4-6.3,29.4c6.2,16,21.8,22.2,21.8,22.2s31,104.2,98.6,104.2
			s87.8-97.6,97-102.6c3-1.6,20-13.6,22.5-29C835.3,307.4,822.3,299,822.3,299z M712.1,433.5c-61.9,0-87.9-137.4-87.9-137.4
			s124.7-8.8,143-38.3c-13.4,32.2,32.8,50.5,32.8,50.5S774.1,433.5,712.1,433.5z"/>
		<path class="st2" d="M853.2,506.5c-31.9-32.6-72.1-38.4-72.1-38.4s5.2,43.4,7,54c-0.2,11.2,0.2,47.7,0.2,47.7l-76.2-47l-76.7,47
			c3.4-40.8,0.9-40.4,1.9-53.4c1.5-19.4,6.2-48.2,6.2-48.2s-59,17.1-75.3,42.9c-23.1,34.3-39.4,258.9-39.4,258.9h366.3
			C895.3,769.9,882,535.9,853.2,506.5z M712.1,669.4c-7,0-12.7-5.7-12.7-12.7c0-7,5.7-12.7,12.7-12.7c7,0,12.7,5.7,12.7,12.7
			C724.9,663.7,719.2,669.4,712.1,669.4z M712.1,619c-7,0-12.7-5.7-12.7-12.7s5.7-12.7,12.7-12.7c7,0,12.7,5.7,12.7,12.7
			C724.9,613.3,719.2,619,712.1,619z"/>
	</g>
	<g id="girl">
		<path class="st3" d="M442.4,506.5c-31.9-32.6-72.1-38.4-72.1-38.4s5.2,43.4,7,54c-0.2,11.2,0.2,47.7,0.2,47.7l-76.2-47l-76.8,47
			c3.4-40.8,0.9-40.4,1.9-53.4c1.5-19.4,6.2-48.2,6.2-48.2s-59,17.1-75.3,42.9C134.4,545.1,118,769.8,118,769.8h366.3
			C484.4,769.9,471.2,535.9,442.4,506.5z M299.6,669.4c-7,0-12.7-5.7-12.7-12.7c0-7,5.7-12.7,12.7-12.7c7,0,12.7,5.7,12.7,12.7
			C312.3,663.7,306.6,669.4,299.6,669.4z M299.6,619c-7,0-12.7-5.7-12.7-12.7s5.7-12.7,12.7-12.7c7,0,12.7,5.7,12.7,12.7
			S306.6,619,299.6,619z"/>
		<path class="st3" d="M490,367c-28-61.4-74.2-59.2-74.2-59.2s10-47.2-23.3-89.6c-19.4-19-30.5-39.4-94.2-44
			c-61.4,3.6-78.4,31.5-92.9,48.6c-23,26.8-23,83.7-23,83.7s-72.2,11.2-77.5,90.7c0,51.8,54.9,44,54.9,44s-6.6-43.7,0-63.8
			c6.6-20.1,25-46.2,25-46.2s7.7,36,30.9,51.5c34.3,71.7,88.4,72.1,86.5,71.8c-1.9-0.3,43.3,4.9,85.7-73.5
			c17.7-13.9,27.4-51.3,27.4-51.3s21.6,26,26.3,54.6c4.6,28.5-0.3,58.7-0.3,58.7S514.2,456.5,490,367z M300,432.4
			c-56.7-3.4-82.8-112.6-82.8-112.6s5.9,1.3,11.8,0s23.8-39.5,23.8-39.5s1.6,12.1,1.3,22.6c-0.5,10.7-2.7,16.8-2.7,16.8
			s9.1,0.5,18.7-1.3c9.5-1.6,24.7-48.6,24.7-48.6s3.7,14.2,3.9,26c0.1,10.6-1.3,18.9,1.2,18.5c4.8-1.3,15.6,5.8,39.3,5
			s46.6-5,46.6-5S356.7,435.7,300,432.4z"/>
	</g>
</g>
<g class="st0">
	<g id="Layer_3" class="st4">
		<g>
			<path class="st5" d="M682.8,48.1c-48.3,0-96,43.7-91.3,118.8c4.1,65.5,44.9,118.8,93.2,118.8s94.2-53.3,97-118.8
				C785.5,76.6,728,48.1,682.8,48.1z M761.9,166.9c-2.2,52-38.6,94.2-76.8,94.2c-38.3,0-70.5-42.3-73.8-94.2
				c-3.8-59.5,34-94.2,72.3-94.2C719.4,72.8,764.9,95.4,761.9,166.9z"/>
			<path class="st5" d="M516,770.1c0.2-17.9,1.2-63.6,5.6-118.8c5.7-71.3,16.6-90.8,16.6-90.8l11.9,209.6h275.5l9.6-207.7
				c0,0,14.3,42.8,18.5,93.2c3.4,40.2,3.5,94.3,3.4,114.5h75.5c1.7-28.4,6.9-124.7,3.3-167.8c-4.3-50.9-44.2-217.7-44.2-217.7
				s-27.1-27.6-58-44.2s-64.2-22.8-64.2-22.8s-9.5,51.8-32.3,100.8s-50.9,74.1-50.9,74.1s-34.2-38.5-54.2-81.7
				c-20-43.3-26.6-95.5-26.6-95.5s-44.7,17.1-68.4,28.3c-30.7,14.3-52.8,38.3-52.8,38.3S446,504.5,439.4,595.3
				c-5.5,74.8-0.2,150.6,1.9,174.9L516,770.1L516,770.1z"/>
			<path class="st5" d="M753.1,285.8l-52.8,57l42.8,76l29-97.9L753.1,285.8z M739.8,369.4L727,346.6l2.4-4.3l20.4-27.1l7.6,15.7
				L739.8,369.4z"/>
			<path class="st5" d="M601.2,320.9l29,97.9l42.8-76l-52.8-57L601.2,320.9z M615.9,330.9l7.6-15.7l20.4,27.1l2.4,4.3l-12.8,22.8
				L615.9,330.9z"/>
			<rect x="678.5" y="396" class="st5" width="12.4" height="109.8"/>
			<polygon class="st5" points="726.9,376.5 700.3,342.8 686.1,406.8 686.1,421.3 			"/>
			<polygon class="st5" points="642.8,376.5 673,342.8 682,404.3 678.5,416.8 			"/>
			<g>
				<path class="st5" d="M170.8,358.8l20-7.1c0,0,10.2,58.5,53.4,58.5s54.2-58.5,54.2-58.5l21.4,7.1c0,0-13.5,77-74.5,77
					s-74.5-74.9-74.5-74.9"/>
				<path class="st5" d="M96.1,770.1h298.4l-8.3-38.2c0,0,39.9-116.8,40.2-158.9c2.5-54.5-19.1-134.2-22.1-142s-20-61.8-50.5-62.1
					c-17.1-0.2-19.2,20.7-20.9,25.5s-20.4,74.4-87.6,74.4s-82.1-57.6-86.7-69.3c-4.6-11.7-3-27.8-15.7-29.4
					c-15.2-5.5-29.2,10.1-36.1,19.5s-44.3,80-44,185.6c4.7,66.2,41.9,155.1,41.9,155.1L96.1,770.1z M360.7,518.1
					c2.5-22.8-7.1-58.8-7.1-58.8l9.6-33.5c0,0,33.9,67,28.9,146.5s-22.5,103-22.5,103l-29.9-119.8
					C339.7,555.5,358.3,540.9,360.7,518.1z M97.1,572.3c-5-79.5,28.9-146.5,28.9-146.5l9.6,33.5c0,0-9.6,36-7.1,58.8
					c2.5,22.8,21,37.4,21,37.4l-29.9,119.8C119.6,675.3,102.1,651.8,97.1,572.3z"/>
				<path class="st5" d="M358.2,306.6c19.9,0.1,35.8-3.7,35.8-3.7s-30.2-6.9-57.1-43.4c-0.2-0.3-0.3-0.6-0.5-0.9
					c-2-8.7-3.3-16.2-4.2-22.5c0.1-1.6,0.2-3.2,0.2-4.8c2.4-115-56.4-132.1-87.9-132.1c-31.2,0-90.4,24.7-87.1,122.7
					c-0.4,8-1.8,20.2-5.6,36.6c-0.2,0.3-0.3,0.6-0.5,0.9c-26.9,36.5-57.1,43.4-57.1,43.4s15.9,3.8,35.8,3.7
					c-14.2,18.7-27.9,25.5-27.9,25.5s37.8-0.1,66.3-17.1c7.6-4.5,14.3-10,20.1-15.7c17.8,20.8,39.8,33.8,56.1,33.8
					c16.5,0,39.6-11.7,57.9-31.3c5.2,4.8,11,9.4,17.4,13.2c28.5,17,66.3,17.1,66.3,17.1S372.5,325.3,358.2,306.6z M296.2,224.7
					c-15.1,54.7-41.4,72.7-52.1,72.7c-21.4,0-37.1-20.5-52-72.7c87-26.4,98-64,98-64S305.5,191.2,296.2,224.7z"/>
			</g>
		</g>
	</g>
</g>
</svg>
