<?xml version="1.0" encoding="utf-8"?>
<!-- Generator: Adobe Illustrator 21.0.0, SVG Export Plug-In . SVG Version: 6.00 Build 0)  -->
<svg version="1.1" id="Layer_2" xmlns="http://www.w3.org/2000/svg" xmlns:xlink="http://www.w3.org/1999/xlink" x="0px" y="0px"
	 viewBox="0 0 1000 1000" style="enable-background:new 0 0 1000 1000;" xml:space="preserve">
<style type="text/css">
	.st0{fill:#FFF444;}
	.st1{fill:#74B65F;}
</style>
<g>
	<path class="st0" d="M553.6,732c-67.4-7.6-47.1-41.8-82.9-101.9c-44.6-74.9-113.5-84.7-70.7-160.6c23.2-41.2,77.8-15.2,105.4,6.6
		c74.1,58.8,62.6,68.5,62.6,68.5c0,0,19.3-37.9,51.6-72.2c33.7-35.8,80.6-68.2,87.7-74.4c-71.6-9.6-180.6-13.1-180.6-13.1
		s-74.3-220.5-108.8-220.5C383.1,164.4,308.8,385,308.8,385s-230.5-1.7-243.4,35.4C52.5,457.4,241.6,592,241.6,592
		S169.3,819.8,200,834.4c30.6,14.6,217.7-114.4,217.7-114.4s198.1,129.3,217.7,114.4c9.9-7.6-1-70.1-14.1-129.7
		C601.3,731.8,585.4,735.7,553.6,732z"/>
	<path class="st1" d="M563.3,588.9c0,0,41.9-93,137.4-159.7c95.5-66.8,176.8-76.8,204.2-70.7c20,4.5,31.1,11.4,30.3,37
		c-0.8,25.6-12.9,26.9-24.8,32c-11.3,4.9-106,9.9-209,116.5c-20.7,21.4-40.4,48-55.3,78.6c-43.1,88.5-49.4,92.3-89.7,90.8
		c-53.6-1.9-44.9-64.2-72.2-110.1c-34-57-94.3-68.2-68.7-117.6c16.6-32,65.2-4.4,86.2,12.2C558,542.9,563.3,588.9,563.3,588.9z"/>
</g>
</svg>
