<?xml version="1.0" encoding="utf-8"?>
<!-- Generator: Adobe Illustrator 21.0.0, SVG Export Plug-In . SVG Version: 6.00 Build 0)  -->
<svg version="1.1" xmlns="http://www.w3.org/2000/svg" xmlns:xlink="http://www.w3.org/1999/xlink" x="0px" y="0px"
	 viewBox="0 0 1000 1000" style="enable-background:new 0 0 1000 1000;" xml:space="preserve">
<style type="text/css">
	.st0{display:none;}
	.st1{display:inline;}
	.st2{fill:#FFF444;}
	.st3{fill:#74B65F;}
	.st4{fill:#4C79BC;}
	.st5{fill:#3FB5F2;}
	.st6{fill:#BA6CAA;}
	.st7{display:inline;fill:#D34A44;}
	.st8{fill:#E28D45;}
	.st9{fill:#D34A44;}
</style>
<g id="Layer_2" class="st0">
	<g class="st1">
		<path class="st2" d="M553.6,732c-67.4-7.6-47.1-41.8-82.9-101.9c-44.6-74.9-113.5-84.7-70.7-160.6c23.2-41.2,77.8-15.2,105.4,6.6
			c74.1,58.8,62.6,68.5,62.6,68.5c0,0,19.3-37.9,51.6-72.2c33.7-35.8,80.6-68.2,87.7-74.4c-71.6-9.6-180.6-13.1-180.6-13.1
			s-74.3-220.5-108.8-220.5C383.1,164.4,308.8,385,308.8,385s-230.5-1.7-243.4,35.4C52.5,457.4,241.6,592,241.6,592
			S169.3,819.8,200,834.4c30.6,14.6,217.7-114.4,217.7-114.4s198.1,129.3,217.7,114.4c9.9-7.6-1-70.1-14.1-129.7
			C601.3,731.8,585.4,735.7,553.6,732z"/>
		<path class="st3" d="M563.3,588.9c0,0,41.9-93,137.4-159.7c95.5-66.8,176.8-76.8,204.2-70.7c20,4.5,31.1,11.4,30.3,37
			c-0.8,25.6-12.9,26.9-24.8,32c-11.3,4.9-106,9.9-209,116.5c-20.7,21.4-40.4,48-55.3,78.6c-43.1,88.5-49.4,92.3-89.7,90.8
			c-53.6-1.9-44.9-64.2-72.2-110.1c-34-57-94.3-68.2-68.7-117.6c16.6-32,65.2-4.4,86.2,12.2C558,542.9,563.3,588.9,563.3,588.9z"/>
	</g>
</g>
<g id="Layer_3" class="st0">
	<g class="st1">
		<g id="прохід">
			<path class="st4" d="M266.2,101.6v645.9h467.6V101.6H266.2z M709.1,721H292.7V129.9h416.5V721z"/>
		</g>
		<g id="двері">
			<path class="st5" d="M266.2,101.3v645.5l298.2,151.9V253.2L266.2,101.3z M525.6,586c0,5.8-4.8,10.6-10.6,10.6
				c-5.8,0-10.6-4.7-10.6-10.6v-66.4c0-5.8,4.8-10.6,10.6-10.6c5.8,0,10.6,4.7,10.6,10.6V586z"/>
		</g>
	</g>
</g>
<g id="Layer_4" class="st0">
	<g id="Layer_2_1_" class="st1">
		<g>
			<path class="st5" d="M378.3,390.4c0,0-7-12.9-16.4,5.4c-9.5,18.3,25.3,39.6,25.3,39.6s41.5,93,96.7,91.4s92.2-88.3,92.2-88.3
				s37.5-20.5,30.1-42.6c-2-17.9-13.6-5.5-13.6-5.5s16.3-56,0-85.9c-16.3-30-46.8-40.5-46.8-40.5s-18.4-24.2-61.5-24.2
				S423,261.4,423,261.4s-26.8,7.4-44.7,35.2C360.5,324.5,378.3,390.4,378.3,390.4z"/>
			<path class="st5" d="M484.3,603.8c55.2,0,79.4-62.7,79.4-62.7s103.4,18.7,105.7,62.7c3.7,32.3,16.3,156.3,16.3,156.3H285.3
				c0,0,16.4-141.9,18.4-159.2c13.7-48.1,101.9-55.7,101.9-55.7S429.1,603.8,484.3,603.8z"/>
		</g>
		<g>
			<path class="st6" d="M120.2,478.3c0,0,11-5.9,17.3-17.7c6.3-11.8,5.1-15.8,5.1-15.8s7.9-77.8,11-89.1s14.6-69.8,85.1-69.8
				s81.8,60,85.9,70.1s10.2,83.9,10.2,83.9s1.3,13.7,8.7,21.3c7.4,7.6,18.3,18.9,18.3,18.9s-25.4,5.9-39.9,7.9
				c-14.6,2-33.1,0.4-33.1,0.4s-21.5,29.2-47.8,29.2s-50.7-29.6-50.7-29.6s-17.7,0.8-35.1-1.2S120.2,478.3,120.2,478.3z"/>
			<path class="st6" d="M189,531.7c0,0,3,27,13.2,44.3c10.2,17.3,34.6,35.8,34.6,35.8s15.9-10.1,33.2-33.8
				c17.3-23.6,15.3-46.2,15.3-46.2l33.1,15.6c0,0-28.7,10.9-40.6,41.6s-21.7,142.7-21.7,142.7H116.6c0,0-2.4-7.1,3.5-72.9
				c5.9-65.8,8.3-83,13-90.6c4.7-7.7,9.9-12.6,26.4-23.3C176.2,534.3,189,531.7,189,531.7z"/>
			<path class="st6" d="M237.2,596.9c0,0,8.5-5.8,14.2-12.1c3.4-3.7,10.2-15.5,10.2-15.5h-48.9c0,0,5.3,10,10,15.3
				C227.5,590,237.2,596.9,237.2,596.9z"/>
		</g>
		<g>
			<path class="st3" d="M641.6,540.8l38.9-14.1l52,36.8l51.5-36.7c0,0,68.3,20.2,82,40.1c13.7,20,17.9,164.8,17.9,164.8H712.5
				c0,0-14.4-136.8-22.1-149.8S662.3,553.8,641.6,540.8z"/>
			<path class="st3" d="M727,517.1c48.9,0.8,75.8-71.9,75.8-71.9s13.7-4.1,20.9-13c4.9-6.1,6.7-20.2,5.6-22.3
				c-2.8-5.2-10.1-2.9-10.1-2.9s12.1-33.3,9.8-56.5c-2.4-23.1-31.3-47.6-31.3-47.6s-2.6-4.5,0.8-11c3.4-6.6,10.8-9.5,10.8-9.5
				s-8.7-3.1-17.3,0.3s-11,7.6-11,7.6s-1-6.8-3.4-16.3s-10.8-14.2-10.8-14.2s-0.8,7.9-4.7,14.2c-3.9,6.3-6.8,5.8-6.8,5.8
				s-2.1-5-6.6-11s-13.4-8.9-13.4-8.9s2.1,8.1,2.9,13.1c0.8,5-1.6,7.4-1.6,7.4s-29.4-4.5-57,9.5c-27.6,13.9-53.6,37.8-50.7,83.3
				c0.9,13.9,11.3,31.5,11.3,31.5s-10-0.8-13.4,5c-1.7,2.9-0.7,17.5,5.8,26.8c6.5,9.3,18.7,13.1,18.7,13.1S678.1,516.3,727,517.1z"
				/>
		</g>
	</g>
</g>
<g id="Layer_5" class="st0">
	<path class="st7" d="M885.7,448.4V321.5h-126V204.8H505.9h-11.8H240.3v116.7h-126v126.9h126v104.9h-126v126.9h126v115h253.7h11.8
		h253.7v-115h126V553.3h-126V448.4H885.7z M381.6,333.4h238.5v103.2H381.6V333.4z M873.8,436.6H633.6V333.4h240.2V436.6z
		 M507.6,216.7h240.2v103.2H507.6V216.7z M253.9,216.7h240.2v103.2H253.9V216.7z M127.9,333.4h240.2v103.2H127.9V333.4z
		 M253.9,450.1h240.2v103.2H379.9h-11.8H253.9V450.1z M620.1,668.3H505.9h-11.8H381.6V565.1h112.5h11.8h114.2V668.3z M127.9,668.3
		V565.1h112.5h127.7v103.2H240.3H127.9z M494.1,783.3H253.9V680.2h114.2h11.8h114.2V783.3z M747.8,783.3H507.6V680.2h112.5h13.5
		h114.2V783.3z M873.8,565.1v103.2H759.7h-126V565.1h126H873.8z M633.6,553.3h-13.5H507.6V450.1h240.2v103.2H633.6z"/>
</g>
<g id="Layer_6" class="st0">
	<g class="st1">
		<g id="Layer_1_2_">
			<g id="Layer_2_3_">
				<g>
					<path class="st4" d="M595.7,563c-1.6-14.2-10.8-4.4-10.8-4.4s12.9-44.4,0-68.1s-37.1-32.1-37.1-32.1s-14.6-19.2-48.7-19.2
						s-48.7,17.1-48.7,17.1s-21.2,5.8-35.4,27.9c-14.2,22.1,0,74.4,0,74.4s-5.5-10.2-13,4.3c-7.5,14.5,20.1,31.4,20.1,31.4
						s32.9,73.7,76.6,72.5c43.7-1.3,73.1-70,73.1-70S601.6,580.5,595.7,563z"/>
				</g>
				<g>
					<path class="st4" d="M562,678.1c0,0-19.2,49.7-62.9,49.7s-62.4-46.3-62.4-46.3s-70,6.5-80.8,44.6
						c-1.6,13.8-14.6,126.8-14.6,126.8h317.4c0,0-10-98.9-12.9-124.5C644,693.6,562,678.1,562,678.1z"/>
				</g>
			</g>
		</g>
		<g id="Layer_2_2_">
			<polygon class="st2" points="550.1,240.8 523.1,193.9 496,147.1 441.9,240.8 475.4,240.8 475.4,362.6 516.6,362.6 516.6,240.8 
							"/>
			<polygon class="st3" points="782.5,368.8 797.2,316.7 811.9,264.6 707,291.2 730.4,315.2 643.1,400.2 671.8,429.7 759.1,344.8 
							"/>
			<polygon class="st8" points="218.9,366.6 204.2,314.6 189.4,262.5 294.4,289.1 271,313.1 358.3,398 329.6,427.6 242.2,342.6 			
				"/>
			<polygon class="st9" points="180.4,486.8 133.5,513.8 86.7,540.9 180.4,595 180.4,561.5 302.2,561.5 302.2,520.3 180.4,520.3 			
				"/>
			<polygon class="st5" points="819.6,595 866.5,567.9 913.3,540.9 819.6,486.8 819.6,520.3 697.8,520.3 697.8,561.5 819.6,561.5 
							"/>
		</g>
	</g>
</g>
<g id="Layer_7">
	<g id="Layer_2_4_">
		<g>
			<path class="st2" d="M677.2,262.8c0,0,168.3-69.3,158.6,75.1C828.1,452.5,642,538.7,642,538.7S469.1,404.2,506.2,286.2
				C552,140.9,677.2,262.8,677.2,262.8z"/>
			<polygon class="st2" points="669.7,595.4 645.6,523.8 599.3,583.4 			"/>
			<path class="st2" d="M602.9,874.4c31.7-187.2,40.3-306.8,40.3-306.8l-9.5-1.6c0,0-10.6,131.7-40.5,308.4H602.9z"/>
		</g>
		<g>
			<path class="st9" d="M323.7,254.2c0,0-169.3-69.3-159.5,75.1c7.7,114.7,194.9,200.9,194.9,200.9s174-134.5,136.6-252.4
				C449.7,132.3,323.7,254.2,323.7,254.2z"/>
			<polygon class="st9" points="331.2,586.8 355.5,515.2 402.1,574.9 			"/>
			<path class="st9" d="M409.7,874.4c-31.2-180.9-42.2-316.9-42.2-316.9l-9.5,1.6c0,0,8.8,123.2,42,315.3H409.7z"/>
		</g>
		<g>
			<path class="st3" d="M522.1,161c0,0-183.5-106.6-200.8,52.6c-13.7,126.5,187.4,254.7,187.4,254.7s229.4-114.7,209.2-250.2
				C693,51.2,522.1,161,522.1,161z"/>
			<polygon class="st3" points="464.9,525.7 507.4,452.1 549.9,525.7 			"/>
			<path class="st3" d="M488,874.4h11.4c0-4.7-0.1-9.4-0.1-14.2C498.5,653.7,512.9,500,512.9,500h-11.4c0,0-14.4,138.8-13.6,358.6
				C487.9,863.9,488,869.2,488,874.4z"/>
		</g>
	</g>
</g>
</svg>
