<?xml version="1.0" encoding="utf-8"?>
<!-- Generator: Adobe Illustrator 21.0.0, SVG Export Plug-In . SVG Version: 6.00 Build 0)  -->
<svg version="1.1" xmlns="http://www.w3.org/2000/svg" xmlns:xlink="http://www.w3.org/1999/xlink" x="0px" y="0px"
	 viewBox="0 0 1000 1000" style="enable-background:new 0 0 1000 1000;" xml:space="preserve">
<style type="text/css">
	.st0{display:none;}
	.st1{display:inline;}
	.st2{fill:#FFF444;}
	.st3{fill:#74B65F;}
	.st4{fill:#4C79BC;}
	.st5{fill:#3FB5F2;}
	.st6{fill:#D34A44;}
</style>
<g id="Layer_2" class="st0">
	<g class="st1">
		<path class="st2" d="M553.6,732c-67.4-7.6-47.1-41.8-82.9-101.9c-44.6-74.9-113.5-84.7-70.7-160.6c23.2-41.2,77.8-15.2,105.4,6.6
			c74.1,58.8,62.6,68.5,62.6,68.5c0,0,19.3-37.9,51.6-72.2c33.7-35.8,80.6-68.2,87.7-74.4c-71.6-9.6-180.6-13.1-180.6-13.1
			s-74.3-220.5-108.8-220.5C383.1,164.4,308.8,385,308.8,385s-230.5-1.7-243.4,35.4C52.5,457.4,241.6,592,241.6,592
			S169.3,819.8,200,834.4c30.6,14.6,217.7-114.4,217.7-114.4s198.1,129.3,217.7,114.4c9.9-7.6-1-70.1-14.1-129.7
			C601.3,731.8,585.4,735.7,553.6,732z"/>
		<path class="st3" d="M563.3,588.9c0,0,41.9-93,137.4-159.7c95.5-66.8,176.8-76.8,204.2-70.7c20,4.5,31.1,11.4,30.3,37
			c-0.8,25.6-12.9,26.9-24.8,32c-11.3,4.9-106,9.9-209,116.5c-20.7,21.4-40.4,48-55.3,78.6c-43.1,88.5-49.4,92.3-89.7,90.8
			c-53.6-1.9-44.9-64.2-72.2-110.1c-34-57-94.3-68.2-68.7-117.6c16.6-32,65.2-4.4,86.2,12.2C558,542.9,563.3,588.9,563.3,588.9z"/>
	</g>
</g>
<g id="Layer_3" class="st0">
	<g class="st1">
		<g id="прохід">
			<path class="st4" d="M266.2,101.6v645.9h467.6V101.6H266.2z M709.1,721H292.7V129.9h416.5V721z"/>
		</g>
		<g id="двері">
			<path class="st5" d="M266.2,101.3v645.5l298.2,151.9V253.2L266.2,101.3z M525.6,586c0,5.8-4.8,10.6-10.6,10.6
				c-5.8,0-10.6-4.7-10.6-10.6v-66.4c0-5.8,4.8-10.6,10.6-10.6c5.8,0,10.6,4.7,10.6,10.6V586z"/>
		</g>
	</g>
</g>
<g id="Layer_4">
	<path class="st6" d="M885.7,448.4V321.5h-126V204.8H505.9h-11.8H240.3v116.7h-126v126.9h126v104.9h-126v126.9h126v115h253.7h11.8
		h253.7v-115h126V553.3h-126V448.4H885.7z M381.6,333.4h238.5v103.2H381.6V333.4z M873.8,436.6H633.6V333.4h240.2V436.6z
		 M507.6,216.7h240.2v103.2H507.6V216.7z M253.9,216.7h240.2v103.2H253.9V216.7z M127.9,333.4h240.2v103.2H127.9V333.4z
		 M253.9,450.1h240.2v103.2H379.9h-11.8H253.9V450.1z M620.1,668.3H505.9h-11.8H381.6V565.1h112.5h11.8h114.2V668.3z M127.9,668.3
		V565.1h112.5h127.7v103.2H240.3H127.9z M494.1,783.3H253.9V680.2h114.2h11.8h114.2V783.3z M747.8,783.3H507.6V680.2h112.5h13.5
		h114.2V783.3z M873.8,565.1v103.2H759.7h-126V565.1h126H873.8z M633.6,553.3h-13.5H507.6V450.1h240.2v103.2H633.6z"/>
</g>
</svg>
